<mxfile host="app.diagrams.net" agent="Mozilla/5.0 (Windows NT 10.0; Win64; x64) AppleWebKit/537.36 (KHTML, like Gecko) Chrome/131.0.0.0 Safari/537.36" version="24.9.1">
  <diagram name="Halaman-1" id="gSWFUyEeLKL_YREmdzkr">
    <mxGraphModel grid="1" page="1" gridSize="10" guides="1" tooltips="1" connect="1" arrows="1" fold="1" pageScale="1" pageWidth="827" pageHeight="1169" math="0" shadow="0">
      <root>
        <mxCell id="0" />
        <mxCell id="1" parent="0" />
        <mxCell id="2Qq0mUmVJ8kJoEybzgZO-1" value="Anggota" style="swimlane;fontStyle=1;align=center;verticalAlign=top;childLayout=stackLayout;horizontal=1;startSize=25.774999618530273;horizontalStack=0;resizeParent=1;resizeParentMax=0;resizeLast=0;collapsible=0;marginBottom=0;" vertex="1" parent="1">
          <mxGeometry x="110" y="-1049" width="150" height="215.77499961853027" as="geometry" />
        </mxCell>
        <mxCell id="2Qq0mUmVJ8kJoEybzgZO-2" value="- idAnggota: int" style="text;strokeColor=none;fillColor=none;align=left;verticalAlign=top;spacingLeft=4;spacingRight=4;overflow=hidden;rotatable=0;points=[[0,0.5],[1,0.5]];portConstraint=eastwest;" vertex="1" parent="2Qq0mUmVJ8kJoEybzgZO-1">
          <mxGeometry y="25.774999618530273" width="150" height="26" as="geometry" />
        </mxCell>
        <mxCell id="2Qq0mUmVJ8kJoEybzgZO-3" value="- nama: string" style="text;strokeColor=none;fillColor=none;align=left;verticalAlign=top;spacingLeft=4;spacingRight=4;overflow=hidden;rotatable=0;points=[[0,0.5],[1,0.5]];portConstraint=eastwest;" vertex="1" parent="2Qq0mUmVJ8kJoEybzgZO-1">
          <mxGeometry y="51.77499961853027" width="150" height="26" as="geometry" />
        </mxCell>
        <mxCell id="2Qq0mUmVJ8kJoEybzgZO-4" value="- alamat: string" style="text;strokeColor=none;fillColor=none;align=left;verticalAlign=top;spacingLeft=4;spacingRight=4;overflow=hidden;rotatable=0;points=[[0,0.5],[1,0.5]];portConstraint=eastwest;" vertex="1" parent="2Qq0mUmVJ8kJoEybzgZO-1">
          <mxGeometry y="77.77499961853027" width="150" height="26" as="geometry" />
        </mxCell>
        <mxCell id="2Qq0mUmVJ8kJoEybzgZO-5" value="- noTelepon: string" style="text;strokeColor=none;fillColor=none;align=left;verticalAlign=top;spacingLeft=4;spacingRight=4;overflow=hidden;rotatable=0;points=[[0,0.5],[1,0.5]];portConstraint=eastwest;" vertex="1" parent="2Qq0mUmVJ8kJoEybzgZO-1">
          <mxGeometry y="103.77499961853027" width="150" height="26" as="geometry" />
        </mxCell>
        <mxCell id="2Qq0mUmVJ8kJoEybzgZO-6" style="line;strokeWidth=1;fillColor=none;align=left;verticalAlign=middle;spacingTop=-1;spacingLeft=3;spacingRight=3;rotatable=0;labelPosition=right;points=[];portConstraint=eastwest;strokeColor=inherit;" vertex="1" parent="2Qq0mUmVJ8kJoEybzgZO-1">
          <mxGeometry y="129.77499961853027" width="150" height="8" as="geometry" />
        </mxCell>
        <mxCell id="2Qq0mUmVJ8kJoEybzgZO-7" value="+registrasi()" style="text;strokeColor=none;fillColor=none;align=left;verticalAlign=top;spacingLeft=4;spacingRight=4;overflow=hidden;rotatable=0;points=[[0,0.5],[1,0.5]];portConstraint=eastwest;" vertex="1" parent="2Qq0mUmVJ8kJoEybzgZO-1">
          <mxGeometry y="137.77499961853027" width="150" height="26" as="geometry" />
        </mxCell>
        <mxCell id="2Qq0mUmVJ8kJoEybzgZO-8" value="+login()" style="text;strokeColor=none;fillColor=none;align=left;verticalAlign=top;spacingLeft=4;spacingRight=4;overflow=hidden;rotatable=0;points=[[0,0.5],[1,0.5]];portConstraint=eastwest;" vertex="1" parent="2Qq0mUmVJ8kJoEybzgZO-1">
          <mxGeometry y="163.77499961853027" width="150" height="26" as="geometry" />
        </mxCell>
        <mxCell id="2Qq0mUmVJ8kJoEybzgZO-9" value="+updateProfil()" style="text;strokeColor=none;fillColor=none;align=left;verticalAlign=top;spacingLeft=4;spacingRight=4;overflow=hidden;rotatable=0;points=[[0,0.5],[1,0.5]];portConstraint=eastwest;" vertex="1" parent="2Qq0mUmVJ8kJoEybzgZO-1">
          <mxGeometry y="189.77499961853027" width="150" height="26" as="geometry" />
        </mxCell>
        <mxCell id="2Qq0mUmVJ8kJoEybzgZO-10" value="Buku" style="swimlane;fontStyle=1;align=center;verticalAlign=top;childLayout=stackLayout;horizontal=1;startSize=25.400000678168404;horizontalStack=0;resizeParent=1;resizeParentMax=0;resizeLast=0;collapsible=0;marginBottom=0;" vertex="1" parent="1">
          <mxGeometry x="310" y="-1060" width="153" height="233.4000006781684" as="geometry" />
        </mxCell>
        <mxCell id="2Qq0mUmVJ8kJoEybzgZO-11" value="- idBuku: int" style="text;strokeColor=none;fillColor=none;align=left;verticalAlign=top;spacingLeft=4;spacingRight=4;overflow=hidden;rotatable=0;points=[[0,0.5],[1,0.5]];portConstraint=eastwest;" vertex="1" parent="2Qq0mUmVJ8kJoEybzgZO-10">
          <mxGeometry y="25.400000678168404" width="153" height="25" as="geometry" />
        </mxCell>
        <mxCell id="2Qq0mUmVJ8kJoEybzgZO-12" value="- judul: string" style="text;strokeColor=none;fillColor=none;align=left;verticalAlign=top;spacingLeft=4;spacingRight=4;overflow=hidden;rotatable=0;points=[[0,0.5],[1,0.5]];portConstraint=eastwest;" vertex="1" parent="2Qq0mUmVJ8kJoEybzgZO-10">
          <mxGeometry y="50.400000678168404" width="153" height="25" as="geometry" />
        </mxCell>
        <mxCell id="2Qq0mUmVJ8kJoEybzgZO-13" value="- pengarang: string" style="text;strokeColor=none;fillColor=none;align=left;verticalAlign=top;spacingLeft=4;spacingRight=4;overflow=hidden;rotatable=0;points=[[0,0.5],[1,0.5]];portConstraint=eastwest;" vertex="1" parent="2Qq0mUmVJ8kJoEybzgZO-10">
          <mxGeometry y="75.4000006781684" width="153" height="25" as="geometry" />
        </mxCell>
        <mxCell id="2Qq0mUmVJ8kJoEybzgZO-14" value="- penerbit: string" style="text;strokeColor=none;fillColor=none;align=left;verticalAlign=top;spacingLeft=4;spacingRight=4;overflow=hidden;rotatable=0;points=[[0,0.5],[1,0.5]];portConstraint=eastwest;" vertex="1" parent="2Qq0mUmVJ8kJoEybzgZO-10">
          <mxGeometry y="100.4000006781684" width="153" height="25" as="geometry" />
        </mxCell>
        <mxCell id="2Qq0mUmVJ8kJoEybzgZO-15" value="- tahunTerbit: int" style="text;strokeColor=none;fillColor=none;align=left;verticalAlign=top;spacingLeft=4;spacingRight=4;overflow=hidden;rotatable=0;points=[[0,0.5],[1,0.5]];portConstraint=eastwest;" vertex="1" parent="2Qq0mUmVJ8kJoEybzgZO-10">
          <mxGeometry y="125.4000006781684" width="153" height="25" as="geometry" />
        </mxCell>
        <mxCell id="2Qq0mUmVJ8kJoEybzgZO-16" value="- status: string" style="text;strokeColor=none;fillColor=none;align=left;verticalAlign=top;spacingLeft=4;spacingRight=4;overflow=hidden;rotatable=0;points=[[0,0.5],[1,0.5]];portConstraint=eastwest;" vertex="1" parent="2Qq0mUmVJ8kJoEybzgZO-10">
          <mxGeometry y="150.4000006781684" width="153" height="25" as="geometry" />
        </mxCell>
        <mxCell id="2Qq0mUmVJ8kJoEybzgZO-17" style="line;strokeWidth=1;fillColor=none;align=left;verticalAlign=middle;spacingTop=-1;spacingLeft=3;spacingRight=3;rotatable=0;labelPosition=right;points=[];portConstraint=eastwest;strokeColor=inherit;" vertex="1" parent="2Qq0mUmVJ8kJoEybzgZO-10">
          <mxGeometry y="175.4000006781684" width="153" height="8" as="geometry" />
        </mxCell>
        <mxCell id="2Qq0mUmVJ8kJoEybzgZO-18" value="+cekKetersediaan()" style="text;strokeColor=none;fillColor=none;align=left;verticalAlign=top;spacingLeft=4;spacingRight=4;overflow=hidden;rotatable=0;points=[[0,0.5],[1,0.5]];portConstraint=eastwest;" vertex="1" parent="2Qq0mUmVJ8kJoEybzgZO-10">
          <mxGeometry y="183.4000006781684" width="153" height="25" as="geometry" />
        </mxCell>
        <mxCell id="2Qq0mUmVJ8kJoEybzgZO-19" value="+updateStatus()" style="text;strokeColor=none;fillColor=none;align=left;verticalAlign=top;spacingLeft=4;spacingRight=4;overflow=hidden;rotatable=0;points=[[0,0.5],[1,0.5]];portConstraint=eastwest;" vertex="1" parent="2Qq0mUmVJ8kJoEybzgZO-10">
          <mxGeometry y="208.4000006781684" width="153" height="25" as="geometry" />
        </mxCell>
        <mxCell id="2Qq0mUmVJ8kJoEybzgZO-20" value="Peminjaman" style="swimlane;fontStyle=1;align=center;verticalAlign=top;childLayout=stackLayout;horizontal=1;startSize=25.774999618530273;horizontalStack=0;resizeParent=1;resizeParentMax=0;resizeLast=0;collapsible=0;marginBottom=0;" vertex="1" parent="1">
          <mxGeometry x="282" y="-773" width="208" height="215.77499961853027" as="geometry" />
        </mxCell>
        <mxCell id="2Qq0mUmVJ8kJoEybzgZO-21" value="- idPeminjaman: int" style="text;strokeColor=none;fillColor=none;align=left;verticalAlign=top;spacingLeft=4;spacingRight=4;overflow=hidden;rotatable=0;points=[[0,0.5],[1,0.5]];portConstraint=eastwest;" vertex="1" parent="2Qq0mUmVJ8kJoEybzgZO-20">
          <mxGeometry y="25.774999618530273" width="208" height="26" as="geometry" />
        </mxCell>
        <mxCell id="2Qq0mUmVJ8kJoEybzgZO-22" value="- tanggalPinjam: date" style="text;strokeColor=none;fillColor=none;align=left;verticalAlign=top;spacingLeft=4;spacingRight=4;overflow=hidden;rotatable=0;points=[[0,0.5],[1,0.5]];portConstraint=eastwest;" vertex="1" parent="2Qq0mUmVJ8kJoEybzgZO-20">
          <mxGeometry y="51.77499961853027" width="208" height="26" as="geometry" />
        </mxCell>
        <mxCell id="2Qq0mUmVJ8kJoEybzgZO-23" value="- tanggalKembali: date" style="text;strokeColor=none;fillColor=none;align=left;verticalAlign=top;spacingLeft=4;spacingRight=4;overflow=hidden;rotatable=0;points=[[0,0.5],[1,0.5]];portConstraint=eastwest;" vertex="1" parent="2Qq0mUmVJ8kJoEybzgZO-20">
          <mxGeometry y="77.77499961853027" width="208" height="26" as="geometry" />
        </mxCell>
        <mxCell id="2Qq0mUmVJ8kJoEybzgZO-24" value="- statusPeminjaman: string" style="text;strokeColor=none;fillColor=none;align=left;verticalAlign=top;spacingLeft=4;spacingRight=4;overflow=hidden;rotatable=0;points=[[0,0.5],[1,0.5]];portConstraint=eastwest;" vertex="1" parent="2Qq0mUmVJ8kJoEybzgZO-20">
          <mxGeometry y="103.77499961853027" width="208" height="26" as="geometry" />
        </mxCell>
        <mxCell id="2Qq0mUmVJ8kJoEybzgZO-25" style="line;strokeWidth=1;fillColor=none;align=left;verticalAlign=middle;spacingTop=-1;spacingLeft=3;spacingRight=3;rotatable=0;labelPosition=right;points=[];portConstraint=eastwest;strokeColor=inherit;" vertex="1" parent="2Qq0mUmVJ8kJoEybzgZO-20">
          <mxGeometry y="129.77499961853027" width="208" height="8" as="geometry" />
        </mxCell>
        <mxCell id="2Qq0mUmVJ8kJoEybzgZO-26" value="+buatPeminjaman()" style="text;strokeColor=none;fillColor=none;align=left;verticalAlign=top;spacingLeft=4;spacingRight=4;overflow=hidden;rotatable=0;points=[[0,0.5],[1,0.5]];portConstraint=eastwest;" vertex="1" parent="2Qq0mUmVJ8kJoEybzgZO-20">
          <mxGeometry y="137.77499961853027" width="208" height="26" as="geometry" />
        </mxCell>
        <mxCell id="2Qq0mUmVJ8kJoEybzgZO-27" value="+perpanjangPeminjaman()" style="text;strokeColor=none;fillColor=none;align=left;verticalAlign=top;spacingLeft=4;spacingRight=4;overflow=hidden;rotatable=0;points=[[0,0.5],[1,0.5]];portConstraint=eastwest;" vertex="1" parent="2Qq0mUmVJ8kJoEybzgZO-20">
          <mxGeometry y="163.77499961853027" width="208" height="26" as="geometry" />
        </mxCell>
        <mxCell id="2Qq0mUmVJ8kJoEybzgZO-28" value="+kembalikanBuku()" style="text;strokeColor=none;fillColor=none;align=left;verticalAlign=top;spacingLeft=4;spacingRight=4;overflow=hidden;rotatable=0;points=[[0,0.5],[1,0.5]];portConstraint=eastwest;" vertex="1" parent="2Qq0mUmVJ8kJoEybzgZO-20">
          <mxGeometry y="189.77499961853027" width="208" height="26" as="geometry" />
        </mxCell>
        <mxCell id="2Qq0mUmVJ8kJoEybzgZO-29" value="Petugas" style="swimlane;fontStyle=1;align=center;verticalAlign=top;childLayout=stackLayout;horizontal=1;startSize=26.25714329310826;horizontalStack=0;resizeParent=1;resizeParentMax=0;resizeLast=0;collapsible=0;marginBottom=0;" vertex="1" parent="1">
          <mxGeometry x="513" y="-1038" width="200" height="190.25714329310824" as="geometry" />
        </mxCell>
        <mxCell id="2Qq0mUmVJ8kJoEybzgZO-30" value="- idPetugas: int" style="text;strokeColor=none;fillColor=none;align=left;verticalAlign=top;spacingLeft=4;spacingRight=4;overflow=hidden;rotatable=0;points=[[0,0.5],[1,0.5]];portConstraint=eastwest;" vertex="1" parent="2Qq0mUmVJ8kJoEybzgZO-29">
          <mxGeometry y="26.25714329310826" width="200" height="26" as="geometry" />
        </mxCell>
        <mxCell id="2Qq0mUmVJ8kJoEybzgZO-31" value="- nama: string" style="text;strokeColor=none;fillColor=none;align=left;verticalAlign=top;spacingLeft=4;spacingRight=4;overflow=hidden;rotatable=0;points=[[0,0.5],[1,0.5]];portConstraint=eastwest;" vertex="1" parent="2Qq0mUmVJ8kJoEybzgZO-29">
          <mxGeometry y="52.25714329310826" width="200" height="26" as="geometry" />
        </mxCell>
        <mxCell id="2Qq0mUmVJ8kJoEybzgZO-32" value="- jabatan: string" style="text;strokeColor=none;fillColor=none;align=left;verticalAlign=top;spacingLeft=4;spacingRight=4;overflow=hidden;rotatable=0;points=[[0,0.5],[1,0.5]];portConstraint=eastwest;" vertex="1" parent="2Qq0mUmVJ8kJoEybzgZO-29">
          <mxGeometry y="78.25714329310826" width="200" height="26" as="geometry" />
        </mxCell>
        <mxCell id="2Qq0mUmVJ8kJoEybzgZO-33" style="line;strokeWidth=1;fillColor=none;align=left;verticalAlign=middle;spacingTop=-1;spacingLeft=3;spacingRight=3;rotatable=0;labelPosition=right;points=[];portConstraint=eastwest;strokeColor=inherit;" vertex="1" parent="2Qq0mUmVJ8kJoEybzgZO-29">
          <mxGeometry y="104.25714329310826" width="200" height="8" as="geometry" />
        </mxCell>
        <mxCell id="2Qq0mUmVJ8kJoEybzgZO-34" value="+verifikasiPeminjaman()" style="text;strokeColor=none;fillColor=none;align=left;verticalAlign=top;spacingLeft=4;spacingRight=4;overflow=hidden;rotatable=0;points=[[0,0.5],[1,0.5]];portConstraint=eastwest;" vertex="1" parent="2Qq0mUmVJ8kJoEybzgZO-29">
          <mxGeometry y="112.25714329310826" width="200" height="26" as="geometry" />
        </mxCell>
        <mxCell id="2Qq0mUmVJ8kJoEybzgZO-35" value="+verifikasiPengembalian()" style="text;strokeColor=none;fillColor=none;align=left;verticalAlign=top;spacingLeft=4;spacingRight=4;overflow=hidden;rotatable=0;points=[[0,0.5],[1,0.5]];portConstraint=eastwest;" vertex="1" parent="2Qq0mUmVJ8kJoEybzgZO-29">
          <mxGeometry y="138.25714329310824" width="200" height="26" as="geometry" />
        </mxCell>
        <mxCell id="2Qq0mUmVJ8kJoEybzgZO-36" value="+kelolaBuku()" style="text;strokeColor=none;fillColor=none;align=left;verticalAlign=top;spacingLeft=4;spacingRight=4;overflow=hidden;rotatable=0;points=[[0,0.5],[1,0.5]];portConstraint=eastwest;" vertex="1" parent="2Qq0mUmVJ8kJoEybzgZO-29">
          <mxGeometry y="164.25714329310824" width="200" height="26" as="geometry" />
        </mxCell>
        <mxCell id="2Qq0mUmVJ8kJoEybzgZO-37" value="Denda" style="swimlane;fontStyle=1;align=center;verticalAlign=top;childLayout=stackLayout;horizontal=1;startSize=26.899998982747395;horizontalStack=0;resizeParent=1;resizeParentMax=0;resizeLast=0;collapsible=0;marginBottom=0;" vertex="1" parent="1">
          <mxGeometry x="297" y="-509" width="179" height="169.89999898274738" as="geometry" />
        </mxCell>
        <mxCell id="2Qq0mUmVJ8kJoEybzgZO-38" value="- idDenda: int" style="text;strokeColor=none;fillColor=none;align=left;verticalAlign=top;spacingLeft=4;spacingRight=4;overflow=hidden;rotatable=0;points=[[0,0.5],[1,0.5]];portConstraint=eastwest;" vertex="1" parent="2Qq0mUmVJ8kJoEybzgZO-37">
          <mxGeometry y="26.899998982747395" width="179" height="27" as="geometry" />
        </mxCell>
        <mxCell id="2Qq0mUmVJ8kJoEybzgZO-39" value="- idPeminjaman: int" style="text;strokeColor=none;fillColor=none;align=left;verticalAlign=top;spacingLeft=4;spacingRight=4;overflow=hidden;rotatable=0;points=[[0,0.5],[1,0.5]];portConstraint=eastwest;" vertex="1" parent="2Qq0mUmVJ8kJoEybzgZO-37">
          <mxGeometry y="53.89999898274739" width="179" height="27" as="geometry" />
        </mxCell>
        <mxCell id="2Qq0mUmVJ8kJoEybzgZO-40" value="- jumlahDenda: double" style="text;strokeColor=none;fillColor=none;align=left;verticalAlign=top;spacingLeft=4;spacingRight=4;overflow=hidden;rotatable=0;points=[[0,0.5],[1,0.5]];portConstraint=eastwest;" vertex="1" parent="2Qq0mUmVJ8kJoEybzgZO-37">
          <mxGeometry y="80.89999898274739" width="179" height="27" as="geometry" />
        </mxCell>
        <mxCell id="2Qq0mUmVJ8kJoEybzgZO-41" style="line;strokeWidth=1;fillColor=none;align=left;verticalAlign=middle;spacingTop=-1;spacingLeft=3;spacingRight=3;rotatable=0;labelPosition=right;points=[];portConstraint=eastwest;strokeColor=inherit;" vertex="1" parent="2Qq0mUmVJ8kJoEybzgZO-37">
          <mxGeometry y="107.89999898274739" width="179" height="8" as="geometry" />
        </mxCell>
        <mxCell id="2Qq0mUmVJ8kJoEybzgZO-42" value="+hitungDenda()" style="text;strokeColor=none;fillColor=none;align=left;verticalAlign=top;spacingLeft=4;spacingRight=4;overflow=hidden;rotatable=0;points=[[0,0.5],[1,0.5]];portConstraint=eastwest;" vertex="1" parent="2Qq0mUmVJ8kJoEybzgZO-37">
          <mxGeometry y="115.89999898274739" width="179" height="27" as="geometry" />
        </mxCell>
        <mxCell id="2Qq0mUmVJ8kJoEybzgZO-43" value="+bayarDenda()" style="text;strokeColor=none;fillColor=none;align=left;verticalAlign=top;spacingLeft=4;spacingRight=4;overflow=hidden;rotatable=0;points=[[0,0.5],[1,0.5]];portConstraint=eastwest;" vertex="1" parent="2Qq0mUmVJ8kJoEybzgZO-37">
          <mxGeometry y="142.89999898274738" width="179" height="27" as="geometry" />
        </mxCell>
        <mxCell id="2Qq0mUmVJ8kJoEybzgZO-44" value="" style="curved=1;startArrow=none;endArrow=open;endSize=12;exitX=0.5;exitY=1;entryX=0;entryY=0.18;rounded=0;" edge="1" parent="1" source="2Qq0mUmVJ8kJoEybzgZO-1" target="2Qq0mUmVJ8kJoEybzgZO-20">
          <mxGeometry relative="1" as="geometry">
            <Array as="points">
              <mxPoint x="185" y="-798" />
            </Array>
          </mxGeometry>
        </mxCell>
        <mxCell id="2Qq0mUmVJ8kJoEybzgZO-45" value="1" style="edgeLabel;resizable=0;labelBackgroundColor=none;fontSize=12;align=left;verticalAlign=top;" vertex="1" parent="2Qq0mUmVJ8kJoEybzgZO-44">
          <mxGeometry x="-1" relative="1" as="geometry" />
        </mxCell>
        <mxCell id="2Qq0mUmVJ8kJoEybzgZO-46" value="Many" style="edgeLabel;resizable=0;labelBackgroundColor=none;fontSize=12;align=right;verticalAlign=bottom;" vertex="1" parent="2Qq0mUmVJ8kJoEybzgZO-44">
          <mxGeometry x="1" relative="1" as="geometry" />
        </mxCell>
        <mxCell id="2Qq0mUmVJ8kJoEybzgZO-47" value="" style="curved=1;startArrow=none;endArrow=open;endSize=12;exitX=0.5;exitY=1;entryX=0.5;entryY=0;rounded=0;" edge="1" parent="1" source="2Qq0mUmVJ8kJoEybzgZO-10" target="2Qq0mUmVJ8kJoEybzgZO-20">
          <mxGeometry relative="1" as="geometry">
            <Array as="points" />
          </mxGeometry>
        </mxCell>
        <mxCell id="2Qq0mUmVJ8kJoEybzgZO-48" value="1" style="edgeLabel;resizable=0;labelBackgroundColor=none;fontSize=12;align=right;verticalAlign=top;" vertex="1" parent="2Qq0mUmVJ8kJoEybzgZO-47">
          <mxGeometry x="-1" relative="1" as="geometry" />
        </mxCell>
        <mxCell id="2Qq0mUmVJ8kJoEybzgZO-49" value="1" style="edgeLabel;resizable=0;labelBackgroundColor=none;fontSize=12;align=left;verticalAlign=bottom;" vertex="1" parent="2Qq0mUmVJ8kJoEybzgZO-47">
          <mxGeometry x="1" relative="1" as="geometry" />
        </mxCell>
        <mxCell id="2Qq0mUmVJ8kJoEybzgZO-50" value="" style="curved=1;startArrow=none;endArrow=open;endSize=12;exitX=0.5;exitY=1;entryX=1;entryY=0.22;rounded=0;" edge="1" parent="1" source="2Qq0mUmVJ8kJoEybzgZO-29" target="2Qq0mUmVJ8kJoEybzgZO-20">
          <mxGeometry relative="1" as="geometry">
            <Array as="points">
              <mxPoint x="613" y="-798" />
            </Array>
          </mxGeometry>
        </mxCell>
        <mxCell id="2Qq0mUmVJ8kJoEybzgZO-51" value="1" style="edgeLabel;resizable=0;labelBackgroundColor=none;fontSize=12;align=right;verticalAlign=top;" vertex="1" parent="2Qq0mUmVJ8kJoEybzgZO-50">
          <mxGeometry x="-1" relative="1" as="geometry" />
        </mxCell>
        <mxCell id="2Qq0mUmVJ8kJoEybzgZO-52" value="Many" style="edgeLabel;resizable=0;labelBackgroundColor=none;fontSize=12;align=left;verticalAlign=bottom;" vertex="1" parent="2Qq0mUmVJ8kJoEybzgZO-50">
          <mxGeometry x="1" relative="1" as="geometry" />
        </mxCell>
        <mxCell id="2Qq0mUmVJ8kJoEybzgZO-53" value="" style="curved=1;startArrow=none;endArrow=open;endSize=12;exitX=0.5;exitY=1;entryX=0.5;entryY=0;rounded=0;" edge="1" parent="1" source="2Qq0mUmVJ8kJoEybzgZO-20" target="2Qq0mUmVJ8kJoEybzgZO-37">
          <mxGeometry relative="1" as="geometry">
            <Array as="points" />
          </mxGeometry>
        </mxCell>
        <mxCell id="2Qq0mUmVJ8kJoEybzgZO-54" value="1" style="edgeLabel;resizable=0;labelBackgroundColor=none;fontSize=12;align=right;verticalAlign=top;" vertex="1" parent="2Qq0mUmVJ8kJoEybzgZO-53">
          <mxGeometry x="-1" relative="1" as="geometry" />
        </mxCell>
        <mxCell id="2Qq0mUmVJ8kJoEybzgZO-55" value="1" style="edgeLabel;resizable=0;labelBackgroundColor=none;fontSize=12;align=left;verticalAlign=bottom;" vertex="1" parent="2Qq0mUmVJ8kJoEybzgZO-53">
          <mxGeometry x="1" relative="1" as="geometry" />
        </mxCell>
      </root>
    </mxGraphModel>
  </diagram>
</mxfile>
